<svg width="918" height="186" viewBox="0 0 918 186" fill="none" xmlns="http://www.w3.org/2000/svg">
<path fill-rule="evenodd" clip-rule="evenodd" d="M26.8307 70.6603C27.1006 87.7764 41.0557 101.539 58.2104 101.539H92.7511C98.1481 101.539 102.813 104.507 105.241 108.94H91.479V115.879C91.479 137.12 74.4399 154.352 53.1989 154.699H38.3572V128.447C33.4999 127.252 28.8739 125.517 24.5948 123.242L24.5948 168.5H53.3146C79.7983 168.076 101.502 148.338 104.817 122.741H124.131V115.34C123.861 98.2236 109.906 84.4612 92.7511 84.4612H58.2104C52.8134 84.4612 48.1489 81.4929 45.7202 77.0597H59.4825V70.1205C59.4825 48.8795 76.5216 31.6479 97.7626 31.3009L112.604 31.3009V57.5534C117.462 58.7485 122.088 60.4831 126.367 62.7576L126.367 17.5L97.647 17.5C71.1632 17.924 49.4596 37.6616 46.1443 63.2587H26.8307V70.6603ZM66.9227 108.94H84.0388V110.251C84.0388 127.406 70.238 141.361 53.1603 141.631H45.7588L45.7588 122.317C20.1616 119.002 0.424049 97.337 0 70.8146L0 42.0949L45.2576 42.0949C42.9832 46.4125 41.2099 50.9999 40.0534 55.8572L13.8009 55.8572L13.8009 70.6989C14.1478 91.9399 31.3796 108.979 52.6207 108.979H59.5596V122.741C63.9543 120.313 66.9612 115.61 66.9612 110.251V108.94H66.9227ZM84.0388 77.0211H66.9227V75.7103C66.9227 58.5556 80.7235 44.6007 97.8012 44.3308H105.203L105.203 63.6441C130.8 66.9594 150.537 88.6247 150.961 115.147V143.867L105.704 143.867C107.978 139.549 109.752 134.962 110.908 130.104L137.161 130.104V115.263C136.814 94.0215 119.582 76.9825 98.3409 76.9825H91.4019V63.2202C87.0072 65.6488 84.0003 70.3519 84.0003 75.7103V77.0211H84.0388Z" fill="url(#paint0_linear_1_39)"/>
<path d="M211.723 63.9912V106.032H232.744C235.625 106.032 238.334 105.495 240.874 104.421C243.413 103.298 245.634 101.784 247.539 99.8799C249.443 97.9756 250.932 95.7539 252.006 93.2148C253.129 90.627 253.691 87.8926 253.691 85.0117C253.691 82.1309 253.129 79.4209 252.006 76.8818C250.932 74.2939 249.443 72.0479 247.539 70.1436C245.634 68.2393 243.413 66.75 240.874 65.6758C238.334 64.5527 235.625 63.9912 232.744 63.9912H211.723ZM211.723 148H190.703V42.9707H232.744C236.601 42.9707 240.312 43.4834 243.876 44.5088C247.441 45.4854 250.761 46.9014 253.837 48.7568C256.962 50.5635 259.794 52.7607 262.333 55.3486C264.921 57.8877 267.119 60.7197 268.925 63.8447C270.781 66.9697 272.197 70.3145 273.173 73.8789C274.199 77.4434 274.711 81.1543 274.711 85.0117C274.711 90.7734 273.613 96.2178 271.416 101.345C269.218 106.423 266.215 110.866 262.407 114.675C258.598 118.483 254.13 121.486 249.003 123.684C243.925 125.881 238.505 126.979 232.744 126.979H211.723V148ZM389.995 95.9248C389.995 100.905 389.335 105.715 388.017 110.354C386.748 114.943 384.941 119.265 382.597 123.317C380.253 127.321 377.421 130.983 374.101 134.304C370.781 137.624 367.119 140.48 363.115 142.873C359.111 145.217 354.79 147.023 350.151 148.293C345.512 149.611 340.703 150.271 335.722 150.271C330.742 150.271 325.932 149.611 321.293 148.293C316.704 147.023 312.382 145.217 308.33 142.873C304.326 140.48 300.664 137.624 297.343 134.304C294.023 130.983 291.167 127.321 288.774 123.317C286.43 119.265 284.599 114.943 283.281 110.354C282.011 105.715 281.376 100.905 281.376 95.9248C281.376 90.9443 282.011 86.1348 283.281 81.4961C284.599 76.8574 286.43 72.5361 288.774 68.5322C291.167 64.5283 294.023 60.8662 297.343 57.5459C300.664 54.2256 304.326 51.3936 308.33 49.0498C312.382 46.7061 316.704 44.8994 321.293 43.6299C325.932 42.3115 330.742 41.6523 335.722 41.6523C340.703 41.6523 345.512 42.3115 350.151 43.6299C354.79 44.8994 359.111 46.7061 363.115 49.0498C367.119 51.3936 370.781 54.2256 374.101 57.5459C377.421 60.8662 380.253 64.5283 382.597 68.5322C384.941 72.5361 386.748 76.8574 388.017 81.4961C389.335 86.1348 389.995 90.9443 389.995 95.9248ZM369.121 95.9248C369.121 91.335 368.242 87.0137 366.484 82.9609C364.726 78.8594 362.333 75.3193 359.306 72.3408C356.328 69.3135 352.788 66.9209 348.686 65.1631C344.633 63.4053 340.312 62.5264 335.722 62.5264C331.083 62.5264 326.738 63.4053 322.685 65.1631C318.632 66.9209 315.092 69.3135 312.065 72.3408C309.038 75.3193 306.645 78.8594 304.887 82.9609C303.129 87.0137 302.25 91.335 302.25 95.9248C302.25 100.515 303.129 104.836 304.887 108.889C306.645 112.893 309.038 116.408 312.065 119.436C315.092 122.463 318.632 124.855 322.685 126.613C326.738 128.371 331.083 129.25 335.722 129.25C340.312 129.25 344.633 128.371 348.686 126.613C352.788 124.855 356.328 122.463 359.306 119.436C362.333 116.408 364.726 112.893 366.484 108.889C368.242 104.836 369.121 100.515 369.121 95.9248ZM477.373 148H403.837V42.9707H424.858V126.979H477.373V148ZM522.124 148H501.176V115.114C496.538 113.942 492.265 112.062 488.359 109.475C484.501 106.887 481.181 103.811 478.398 100.246C475.615 96.6328 473.442 92.6533 471.879 88.3076C470.366 83.9131 469.609 79.2988 469.609 74.4648V42.9707H490.629V74.4648C490.629 77.3457 491.167 80.0801 492.241 82.668C493.364 85.207 494.877 87.4287 496.782 89.333C498.686 91.2373 500.908 92.751 503.447 93.874C506.035 94.9482 508.769 95.4854 511.65 95.4854C514.531 95.4854 517.241 94.9482 519.78 93.874C522.368 92.751 524.614 91.2373 526.518 89.333C528.422 87.4287 529.912 85.207 530.986 82.668C532.109 80.0801 532.67 77.3457 532.67 74.4648V42.9707H553.618V74.4648C553.618 79.2988 552.836 83.9131 551.274 88.3076C549.76 92.6533 547.612 96.6328 544.829 100.246C542.045 103.811 538.725 106.887 534.868 109.475C531.01 112.062 526.762 113.942 522.124 115.114V148ZM561.748 74.4648C561.748 70.1191 562.578 66.042 564.238 62.2334C565.898 58.4248 568.144 55.1045 570.976 52.2725C573.857 49.3916 577.202 47.1211 581.01 45.4609C584.819 43.8008 588.896 42.9707 593.242 42.9707H641.435V63.9912H593.242C591.777 63.9912 590.41 64.2598 589.14 64.7969C587.871 65.334 586.748 66.0908 585.771 67.0674C584.843 67.9951 584.111 69.0938 583.574 70.3633C583.037 71.6328 582.768 73 582.768 74.4648C582.768 75.9297 583.037 77.3213 583.574 78.6396C584.111 79.9092 584.843 81.0322 585.771 82.0088C586.748 82.9365 587.871 83.6689 589.14 84.2061C590.41 84.7432 591.777 85.0117 593.242 85.0117H614.262C618.608 85.0117 622.685 85.8418 626.494 87.502C630.351 89.1133 633.696 91.3594 636.528 94.2402C639.409 97.0723 641.655 100.417 643.266 104.274C644.926 108.083 645.756 112.16 645.756 116.506C645.756 120.852 644.926 124.929 643.266 128.737C641.655 132.546 639.409 135.891 636.528 138.771C633.696 141.604 630.351 143.85 626.494 145.51C622.685 147.17 618.608 148 614.262 148H567.607V126.979H614.262C615.727 126.979 617.094 126.711 618.364 126.174C619.633 125.637 620.732 124.904 621.66 123.977C622.636 123 623.393 121.877 623.93 120.607C624.467 119.338 624.736 117.971 624.736 116.506C624.736 115.041 624.467 113.674 623.93 112.404C623.393 111.135 622.636 110.036 621.66 109.108C620.732 108.132 619.633 107.375 618.364 106.838C617.094 106.301 615.727 106.032 614.262 106.032H593.242C588.896 106.032 584.819 105.202 581.01 103.542C577.202 101.882 573.857 99.6357 570.976 96.8037C568.144 93.9229 565.898 90.5781 564.238 86.7695C562.578 82.9121 561.748 78.8105 561.748 74.4648ZM731.596 148H659.599V42.9707H731.596V63.9912H680.62V85.0117H715.117V106.032H680.62V126.979H731.596V148ZM818.315 148H746.318V42.9707H818.315V63.9912H767.338V85.0117H801.835V106.032H767.338V126.979H818.315V148ZM854.057 148H833.037V42.9707H854.057V95.4854L893.168 42.9707H917.045L883.867 87.2822L917.045 148H893.168L870.097 105.52L854.057 126.979V148Z" fill="url(#paint1_linear_1_39)"/>
<defs>
<linearGradient id="paint0_linear_1_39" x1="75.4807" y1="17.5" x2="75.4807" y2="168.5" gradientUnits="userSpaceOnUse">
<stop stop-color="#EEF2F3"/>
<stop offset="1" stop-color="#8E9EAB"/>
</linearGradient>
<linearGradient id="paint1_linear_1_39" x1="549.461" y1="0" x2="549.461" y2="186" gradientUnits="userSpaceOnUse">
<stop stop-color="#EEF2F3"/>
<stop offset="1" stop-color="#8E9EAB"/>
</linearGradient>
</defs>
</svg>
